<svg width="350" height="350" viewBox="0 0 350 350" fill="none" xmlns="http://www.w3.org/2000/svg">
<rect width="350" height="350" rx="175" fill="#A0AD9E"/>
<path d="M49.1082 203.17C45.3815 203.17 42.6082 202.65 40.7882 201.61C38.8815 200.57 37.6249 199.4 37.0182 198.1C36.3249 196.713 35.9782 195.5 35.9782 194.46C35.9782 193.507 36.3682 192.64 37.1482 191.86C37.9282 190.993 38.9682 190.56 40.2682 190.56C42.1749 190.56 43.1282 191.34 43.1282 192.9C43.1282 193.68 42.8249 194.287 42.2182 194.72C41.6115 195.153 41.0482 195.37 40.5282 195.37C39.6615 195.37 39.0115 195.327 38.5782 195.24C38.1449 195.067 37.9282 194.98 37.9282 194.98C37.9282 195.327 38.1015 196.063 38.4482 197.19C38.7949 198.317 39.7482 199.357 41.3082 200.31C42.8682 201.263 45.4682 201.74 49.1082 201.74C53.5282 201.74 57.6015 200.7 61.3282 198.62C65.0549 196.54 68.3482 193.983 71.2082 190.95C74.1549 187.917 76.6682 184.883 78.7482 181.85C80.8282 178.817 82.4749 176.347 83.6882 174.44C85.0749 172.36 86.9382 169.847 89.2782 166.9C91.7049 163.953 94.3915 160.963 97.3382 157.93C100.285 154.897 103.275 152.123 106.308 149.61C109.428 147.01 112.375 145.017 115.148 143.63C115.842 143.283 116.232 143.413 116.318 144.02C116.405 144.54 116.232 144.887 115.798 145.06C113.198 146.36 110.512 148.7 107.738 152.08C105.052 155.373 102.192 159.23 99.1582 163.65C96.2115 167.983 93.0482 172.447 89.6682 177.04C86.2882 181.633 82.5615 185.923 78.4882 189.91C74.4149 193.897 69.9515 197.103 65.0982 199.53C60.3315 201.957 55.0015 203.17 49.1082 203.17ZM76.4082 164.17C73.2015 164.17 70.9482 163.433 69.6482 161.96C68.4349 160.487 67.8282 158.667 67.8282 156.5C67.8282 154.16 68.7815 151.69 70.6882 149.09C72.6815 146.403 75.3249 143.89 78.6182 141.55C81.9982 139.21 85.8549 137.347 90.1882 135.96C94.5215 134.487 99.0282 133.75 103.708 133.75C107.262 133.75 110.642 133.967 113.848 134.4C117.142 134.747 120.305 135.137 123.338 135.57C126.458 135.917 129.448 136.09 132.308 136.09C136.035 136.09 139.068 135.57 141.408 134.53C143.835 133.403 145.698 132.19 146.998 130.89C148.385 129.59 149.382 128.55 149.988 127.77C150.682 126.817 151.202 126.513 151.548 126.86C151.895 127.207 151.895 127.683 151.548 128.29C151.462 128.55 150.855 129.287 149.728 130.5C148.688 131.713 147.085 133.1 144.918 134.66C142.752 136.133 139.935 137.433 136.468 138.56C133.088 139.687 129.015 140.25 124.248 140.25C119.742 140.25 116.058 139.99 113.198 139.47C110.425 138.863 107.868 138.3 105.528 137.78C103.188 137.26 100.502 137 97.4682 137C94.1749 137 90.8382 137.65 87.4582 138.95C84.1649 140.163 81.1315 141.767 78.3582 143.76C75.5849 145.753 73.3315 147.92 71.5982 150.26C69.9515 152.513 69.1282 154.68 69.1282 156.76C69.1282 158.667 69.6049 160.14 70.5582 161.18C71.5982 162.133 73.3749 162.61 75.8882 162.61C77.4482 162.61 79.2682 162.047 81.3482 160.92C83.4282 159.707 85.4649 158.103 87.4582 156.11C89.5382 154.03 91.4015 151.733 93.0482 149.22C94.7815 146.707 96.0815 144.15 96.9482 141.55C97.1215 140.857 97.3382 140.64 97.5982 140.9C97.9449 141.16 98.1182 141.637 98.1182 142.33C98.0315 144.757 97.3382 147.27 96.0382 149.87C94.8249 152.383 93.1782 154.723 91.0982 156.89C89.1049 159.057 86.8082 160.833 84.2082 162.22C81.6949 163.52 79.0949 164.17 76.4082 164.17Z" fill="white"/>
<path d="M172.674 153.51C173.367 152.99 173.801 152.903 173.974 153.25C174.147 153.51 174.017 153.857 173.584 154.29C170.984 156.457 168.341 159.187 165.654 162.48C162.967 165.773 160.324 169.283 157.724 173.01C155.124 176.737 152.697 180.463 150.444 184.19C148.191 187.83 146.241 191.253 144.594 194.46C142.947 197.58 141.734 200.137 140.954 202.13C139.914 201.957 138.657 201.87 137.184 201.87C135.797 201.87 134.367 201.957 132.894 202.13C133.241 201.61 133.977 200.397 135.104 198.49C136.317 196.497 137.617 194.157 139.004 191.47C140.477 188.697 141.734 185.793 142.774 182.76C143.814 179.64 144.334 176.693 144.334 173.92C144.334 172.187 143.814 170.453 142.774 168.72C141.821 166.987 140.347 166.12 138.354 166.12C136.967 166.12 135.407 167.16 133.674 169.24C132.027 171.32 131.204 174.137 131.204 177.69C131.204 181.503 131.984 185.013 133.544 188.22C135.104 191.34 137.314 193.853 140.174 195.76C143.034 197.58 146.414 198.49 150.314 198.49C153.347 198.49 156.034 197.753 158.374 196.28C160.801 194.72 162.664 192.9 163.964 190.82C165.264 188.653 165.741 186.617 165.394 184.71C164.874 184.71 164.397 184.58 163.964 184.32C163.531 184.06 163.314 183.583 163.314 182.89C163.314 182.543 163.444 182.24 163.704 181.98C164.051 181.633 164.484 181.46 165.004 181.46C166.477 181.46 167.214 182.717 167.214 185.23C167.214 187.483 166.434 189.78 164.874 192.12C163.401 194.373 161.364 196.237 158.764 197.71C156.251 199.183 153.391 199.92 150.184 199.92C146.197 199.92 142.514 198.88 139.134 196.8C135.841 194.72 133.197 191.947 131.204 188.48C129.297 185.013 128.344 181.287 128.344 177.3C128.344 175.133 128.734 173.053 129.514 171.06C130.381 169.067 131.507 167.42 132.894 166.12C134.281 164.82 135.884 164.17 137.704 164.17C139.524 164.17 141.041 164.733 142.254 165.86C143.467 166.987 144.377 168.33 144.984 169.89C145.591 171.363 145.894 172.75 145.894 174.05C145.894 176.043 145.547 178.253 144.854 180.68C144.161 183.02 143.337 185.317 142.384 187.57C141.517 189.823 140.694 191.773 139.914 193.42C139.134 194.98 138.614 195.933 138.354 196.28C137.921 196.973 137.487 197.407 137.054 197.58C136.707 197.667 136.837 197.19 137.444 196.15C137.877 195.283 138.917 193.637 140.564 191.21C142.297 188.697 144.421 185.793 146.934 182.5C149.447 179.12 152.134 175.653 154.994 172.1C157.941 168.46 160.931 164.993 163.964 161.7C167.084 158.407 169.987 155.677 172.674 153.51Z" fill="white"/>
<path d="M234.18 203.56C233.66 203.993 233.183 204.08 232.75 203.82C232.317 203.647 232.49 203.17 233.27 202.39C234.57 201.09 235.783 199.01 236.91 196.15C238.037 193.203 239.25 189.65 240.55 185.49C241.85 181.33 243.41 176.78 245.23 171.84C247.05 166.813 249.26 161.613 251.86 156.24C254.547 150.867 257.753 145.537 261.48 140.25C261.74 139.903 262.043 139.643 262.39 139.47C262.737 139.21 262.867 139.253 262.78 139.6C262.78 139.687 261.913 140.9 260.18 143.24C258.533 145.58 256.237 148.657 253.29 152.47C250.343 156.197 246.963 160.313 243.15 164.82C239.423 169.327 235.437 173.833 231.19 178.34C227.03 182.847 222.827 187.007 218.58 190.82C214.333 194.547 210.26 197.537 206.36 199.79C202.46 202.043 198.993 203.17 195.96 203.17C191.973 203.17 189.243 202.433 187.77 200.96C186.297 199.4 185.56 197.84 185.56 196.28C185.56 195.067 186.08 194.113 187.12 193.42C188.073 192.64 188.983 192.25 189.85 192.25C191.757 192.25 192.71 192.987 192.71 194.46C192.71 195.24 192.45 195.89 191.93 196.41C191.323 196.843 190.587 197.06 189.72 197.06C189.113 197.06 188.593 196.973 188.16 196.8C187.727 196.54 187.51 196.41 187.51 196.41C187.51 197.537 188.073 198.75 189.2 200.05C190.24 201.35 192.233 202 195.18 202C198.127 202 201.507 200.873 205.32 198.62C209.133 196.367 213.12 193.377 217.28 189.65C221.527 185.837 225.773 181.677 230.02 177.17C234.267 172.663 238.297 168.113 242.11 163.52C246.01 158.84 249.477 154.507 252.51 150.52C255.63 146.447 258.187 143.067 260.18 140.38C262.173 137.693 263.343 136.047 263.69 135.44C264.21 134.747 264.687 134.183 265.12 133.75C265.64 133.317 265.987 133.187 266.16 133.36C266.333 133.533 266.117 134.227 265.51 135.44C264.73 136.913 263.733 139.47 262.52 143.11C261.307 146.663 259.877 150.867 258.23 155.72C256.583 160.573 254.677 165.643 252.51 170.93C250.343 176.217 247.873 181.33 245.1 186.27C242.413 191.21 239.38 195.587 236 199.4C235.48 199.92 235.263 200.05 235.35 199.79C235.523 199.443 235.827 198.967 236.26 198.36C236.693 197.753 237.04 197.32 237.3 197.06C239.987 194.547 243.15 191.123 246.79 186.79C250.43 182.457 254.417 177.733 258.75 172.62C263.083 167.42 267.633 162.22 272.4 157.02C277.253 151.82 282.193 147.053 287.22 142.72C292.333 138.387 297.403 134.92 302.43 132.32C307.543 129.633 312.527 128.29 317.38 128.29C320.847 128.29 323.36 129.287 324.92 131.28C326.567 133.187 327.39 135.397 327.39 137.91C327.39 140.25 326.61 142.59 325.05 144.93C323.577 147.183 321.713 149.263 319.46 151.17C317.207 153.077 314.997 154.68 312.83 155.98C310.75 157.193 309.103 157.887 307.89 158.06C307.11 158.147 306.547 158.19 306.2 158.19C305.94 158.103 306.243 157.8 307.11 157.28C307.11 157.28 307.933 156.89 309.58 156.11C311.313 155.243 313.307 154.03 315.56 152.47C317.813 150.823 319.807 148.787 321.54 146.36C323.273 143.847 324.14 140.943 324.14 137.65C324.14 136.61 323.923 135.483 323.49 134.27C323.143 132.97 322.45 131.887 321.41 131.02C320.37 130.067 318.853 129.59 316.86 129.59C312.353 129.59 307.63 130.933 302.69 133.62C297.837 136.307 292.897 139.86 287.87 144.28C282.843 148.7 277.86 153.64 272.92 159.1C267.98 164.473 263.17 169.977 258.49 175.61C253.897 181.157 249.52 186.357 245.36 191.21C241.287 196.063 237.56 200.18 234.18 203.56ZM211.3 162.35C206.013 162.35 202.157 160.963 199.73 158.19C197.39 155.417 196.22 152.167 196.22 148.44C196.22 145.84 197 143.283 198.56 140.77C200.207 138.17 202.763 136.047 206.23 134.4C209.697 132.667 214.203 131.8 219.75 131.8C223.217 131.8 226.337 132.277 229.11 133.23C231.883 134.097 234.353 135.093 236.52 136.22C238.773 137.347 240.897 138.387 242.89 139.34C244.883 140.207 246.833 140.64 248.74 140.64C250.647 140.64 252.467 140.207 254.2 139.34C255.933 138.387 256.973 137.737 257.32 137.39C257.753 137.043 258.013 136.957 258.1 137.13C258.187 137.303 258.143 137.607 257.97 138.04C257.883 138.3 257.407 138.863 256.54 139.73C255.673 140.597 254.33 141.42 252.51 142.2C250.69 142.893 248.263 143.24 245.23 143.24C242.543 143.24 239.987 142.763 237.56 141.81C235.22 140.857 232.88 139.773 230.54 138.56C228.287 137.347 225.903 136.263 223.39 135.31C220.963 134.357 218.32 133.88 215.46 133.88C211.733 133.88 208.527 134.66 205.84 136.22C203.24 137.78 201.247 139.687 199.86 141.94C198.473 144.193 197.78 146.36 197.78 148.44C197.78 151.647 198.82 154.593 200.9 157.28C203.067 159.88 206.533 161.18 211.3 161.18C213.813 161.18 216.11 160.617 218.19 159.49C220.357 158.277 222.047 156.717 223.26 154.81C224.56 152.903 225.21 150.91 225.21 148.83C225.21 148.31 224.993 147.66 224.56 146.88C224.213 146.1 223.953 145.71 223.78 145.71C223.78 145.71 223.607 145.883 223.26 146.23C222.913 146.49 222.437 146.62 221.83 146.62C221.31 146.62 220.747 146.447 220.14 146.1C219.62 145.753 219.36 145.19 219.36 144.41C219.36 143.717 219.577 143.197 220.01 142.85C220.53 142.417 221.093 142.2 221.7 142.2C222.913 142.2 224.04 142.72 225.08 143.76C226.12 144.8 226.64 146.403 226.64 148.57C226.64 152.557 225.123 155.85 222.09 158.45C219.057 161.05 215.46 162.35 211.3 162.35Z" fill="white"/>
</svg>
